name rise45.9887peak57.8056fall74.9286.mot
datacolumns 19
datarows 24
range 8.25830600000000 8.29663400000000
endheader
time	ground_force1_vx	ground_force1_vy	ground_force1_vz	ground_force1_px	ground_force1_py	ground_force1_pz	ground_force2_vx	ground_force2_vy	ground_force2_vz	ground_force2_px	ground_force2_py	ground_force2_pz	ground_torque1_x	ground_torque1_y	ground_torque1_z	ground_torque2_x	ground_torque2_y	ground_torque2_z	
8.25830600000000	14.71893300000000	726.91856399999995	46.75652500000000	0.25776800000000	0.00000000000000	0.11274100000000	0.00000000000000	0.00000000000000	0.00000000000000	0.00000000000000	0.00000000000000	0.00000000000000	0.00000000000000	20.14660700000000	0.00000000000000	0.00000000000000	0.00000000000000	0.00000000000000	
8.25997100000000	14.42734000000000	727.42127300000004	46.69733400000000	0.25718200000000	0.00000000000000	0.11261900000000	0.00000000000000	0.00000000000000	0.00000000000000	0.00000000000000	0.00000000000000	0.00000000000000	0.00000000000000	20.13556800000000	0.00000000000000	0.00000000000000	0.00000000000000	0.00000000000000	
8.26163400000000	14.12780500000000	727.93531399999995	46.64156400000000	0.25658600000000	0.00000000000000	0.11249700000000	0.00000000000000	0.00000000000000	0.00000000000000	0.00000000000000	0.00000000000000	0.00000000000000	0.00000000000000	20.12800400000000	0.00000000000000	0.00000000000000	0.00000000000000	0.00000000000000	
8.26330600000000	13.82004700000000	728.45943599999998	46.58919800000000	0.25597800000000	0.00000000000000	0.11237600000000	0.00000000000000	0.00000000000000	0.00000000000000	0.00000000000000	0.00000000000000	0.00000000000000	0.00000000000000	20.12390900000000	0.00000000000000	0.00000000000000	0.00000000000000	0.00000000000000	
8.26496600000000	13.50380500000000	728.99242700000002	46.54021500000000	0.25535700000000	0.00000000000000	0.11225600000000	0.00000000000000	0.00000000000000	0.00000000000000	0.00000000000000	0.00000000000000	0.00000000000000	0.00000000000000	20.12327500000000	0.00000000000000	0.00000000000000	0.00000000000000	0.00000000000000	
8.26663600000000	13.17883500000000	729.53312000000005	46.49459700000000	0.25472200000000	0.00000000000000	0.11213700000000	0.00000000000000	0.00000000000000	0.00000000000000	0.00000000000000	0.00000000000000	0.00000000000000	0.00000000000000	20.12609500000000	0.00000000000000	0.00000000000000	0.00000000000000	0.00000000000000	
8.26830600000000	12.84492000000000	730.08039199999996	46.45232600000000	0.25407300000000	0.00000000000000	0.11201800000000	0.00000000000000	0.00000000000000	0.00000000000000	0.00000000000000	0.00000000000000	0.00000000000000	0.00000000000000	20.13236200000000	0.00000000000000	0.00000000000000	0.00000000000000	0.00000000000000	
8.26996800000000	12.50186100000000	730.63316899999995	46.41338400000000	0.25340700000000	0.00000000000000	0.11190100000000	0.00000000000000	0.00000000000000	0.00000000000000	0.00000000000000	0.00000000000000	0.00000000000000	0.00000000000000	20.14206800000000	0.00000000000000	0.00000000000000	0.00000000000000	0.00000000000000	
8.27164100000000	12.14948500000000	731.19042200000001	46.37775200000000	0.25272600000000	0.00000000000000	0.11178500000000	0.00000000000000	0.00000000000000	0.00000000000000	0.00000000000000	0.00000000000000	0.00000000000000	0.00000000000000	20.15520500000000	0.00000000000000	0.00000000000000	0.00000000000000	0.00000000000000	
8.27330800000000	11.78764400000000	731.75117599999999	46.34541400000000	0.25202700000000	0.00000000000000	0.11167000000000	0.00000000000000	0.00000000000000	0.00000000000000	0.00000000000000	0.00000000000000	0.00000000000000	0.00000000000000	20.17176400000000	0.00000000000000	0.00000000000000	0.00000000000000	0.00000000000000	
8.27498000000000	11.41621200000000	732.31450600000005	46.31635200000000	0.25131100000000	0.00000000000000	0.11155700000000	0.00000000000000	0.00000000000000	0.00000000000000	0.00000000000000	0.00000000000000	0.00000000000000	0.00000000000000	20.19173700000000	0.00000000000000	0.00000000000000	0.00000000000000	0.00000000000000	
8.27664100000000	11.03509100000000	732.87954300000001	46.29054600000000	0.25057700000000	0.00000000000000	0.11144500000000	0.00000000000000	0.00000000000000	0.00000000000000	0.00000000000000	0.00000000000000	0.00000000000000	0.00000000000000	20.21511100000000	0.00000000000000	0.00000000000000	0.00000000000000	0.00000000000000	
8.27829900000000	10.64420800000000	733.44547000000000	46.26797800000000	0.24982500000000	0.00000000000000	0.11133400000000	0.00000000000000	0.00000000000000	0.00000000000000	0.00000000000000	0.00000000000000	0.00000000000000	0.00000000000000	20.24187600000000	0.00000000000000	0.00000000000000	0.00000000000000	0.00000000000000	
8.27997100000000	10.24351700000000	734.01152700000000	46.24862900000000	0.24905400000000	0.00000000000000	0.11122600000000	0.00000000000000	0.00000000000000	0.00000000000000	0.00000000000000	0.00000000000000	0.00000000000000	0.00000000000000	20.27201600000000	0.00000000000000	0.00000000000000	0.00000000000000	0.00000000000000	
8.28163300000000	9.83299800000000	734.57701199999997	46.23247900000000	0.24826500000000	0.00000000000000	0.11111800000000	0.00000000000000	0.00000000000000	0.00000000000000	0.00000000000000	0.00000000000000	0.00000000000000	0.00000000000000	20.30551800000000	0.00000000000000	0.00000000000000	0.00000000000000	0.00000000000000	
8.28330100000000	9.41265800000000	735.14128200000005	46.21950700000000	0.24745800000000	0.00000000000000	0.11101300000000	0.00000000000000	0.00000000000000	0.00000000000000	0.00000000000000	0.00000000000000	0.00000000000000	0.00000000000000	20.34236300000000	0.00000000000000	0.00000000000000	0.00000000000000	0.00000000000000	
8.28497300000000	8.98253100000000	735.70375200000001	46.20969300000000	0.24663300000000	0.00000000000000	0.11090900000000	0.00000000000000	0.00000000000000	0.00000000000000	0.00000000000000	0.00000000000000	0.00000000000000	0.00000000000000	20.38252900000000	0.00000000000000	0.00000000000000	0.00000000000000	0.00000000000000	
8.28663700000000	8.54267700000000	736.26389800000004	46.20301300000000	0.24579000000000	0.00000000000000	0.11080700000000	0.00000000000000	0.00000000000000	0.00000000000000	0.00000000000000	0.00000000000000	0.00000000000000	0.00000000000000	20.42599500000000	0.00000000000000	0.00000000000000	0.00000000000000	0.00000000000000	
8.28830300000000	8.09318400000000	736.82125599999995	46.19944400000000	0.24492900000000	0.00000000000000	0.11070700000000	0.00000000000000	0.00000000000000	0.00000000000000	0.00000000000000	0.00000000000000	0.00000000000000	0.00000000000000	20.47273400000000	0.00000000000000	0.00000000000000	0.00000000000000	0.00000000000000	
8.28997200000000	7.63416500000000	737.37542499999995	46.19896100000000	0.24405200000000	0.00000000000000	0.11060800000000	0.00000000000000	0.00000000000000	0.00000000000000	0.00000000000000	0.00000000000000	0.00000000000000	0.00000000000000	20.52271600000000	0.00000000000000	0.00000000000000	0.00000000000000	0.00000000000000	
8.29163700000000	7.16576000000000	737.92606499999999	46.20153900000000	0.24315800000000	0.00000000000000	0.11051100000000	0.00000000000000	0.00000000000000	0.00000000000000	0.00000000000000	0.00000000000000	0.00000000000000	0.00000000000000	20.57590800000000	0.00000000000000	0.00000000000000	0.00000000000000	0.00000000000000	
8.29330200000000	6.68813300000000	738.47289999999998	46.20715200000000	0.24224700000000	0.00000000000000	0.11041600000000	0.00000000000000	0.00000000000000	0.00000000000000	0.00000000000000	0.00000000000000	0.00000000000000	0.00000000000000	20.63227200000000	0.00000000000000	0.00000000000000	0.00000000000000	0.00000000000000	
8.29497400000000	6.20147400000000	739.01571600000000	46.21577100000000	0.24132200000000	0.00000000000000	0.11032300000000	0.00000000000000	0.00000000000000	0.00000000000000	0.00000000000000	0.00000000000000	0.00000000000000	0.00000000000000	20.69176900000000	0.00000000000000	0.00000000000000	0.00000000000000	0.00000000000000	
8.29663400000000	5.70599700000000	739.55436199999997	46.22736700000000	0.24038200000000	0.00000000000000	0.11023200000000	0.00000000000000	0.00000000000000	0.00000000000000	0.00000000000000	0.00000000000000	0.00000000000000	0.00000000000000	20.75435100000000	0.00000000000000	0.00000000000000	0.00000000000000	0.00000000000000	
